<svg width="24" height="24" viewBox="0 0 24 24" fill="none" xmlns="http://www.w3.org/2000/svg">
<path d="M6 22C5.16667 22 4.45833 21.7083 3.875 21.125C3.29167 20.5417 3 19.8333 3 19V5C3 4.16667 3.29167 3.45833 3.875 2.875C4.45833 2.29167 5.16667 2 6 2H15C15.55 2 16.0208 2.19583 16.4125 2.5875C16.8042 2.97917 17 3.45 17 4V16C17 16.55 16.8042 17.0208 16.4125 17.4125C16.0208 17.8042 15.55 18 15 18H6C5.71667 18 5.47917 18.0958 5.2875 18.2875C5.09583 18.4792 5 18.7167 5 19C5 19.2833 5.09583 19.5208 5.2875 19.7125C5.47917 19.9042 5.71667 20 6 20H19V5C19 4.71667 19.0958 4.47917 19.2875 4.2875C19.4792 4.09583 19.7167 4 20 4C20.2833 4 20.5208 4.09583 20.7125 4.2875C20.9042 4.47917 21 4.71667 21 5V20C21 20.55 20.8042 21.0208 20.4125 21.4125C20.0208 21.8042 19.55 22 19 22H6ZM6 16H15V4H6C5.71667 4 5.47917 4.09583 5.2875 4.2875C5.09583 4.47917 5 4.71667 5 5V16.175C5.16667 16.125 5.32917 16.0833 5.4875 16.05C5.64583 16.0167 5.81667 16 6 16ZM7.55 13.5C7.68333 13.5 7.79583 13.4667 7.8875 13.4C7.97917 13.3333 8.04167 13.2417 8.075 13.125L8.6 11.7H11.425L11.925 13.125C11.9583 13.2417 12.025 13.3333 12.125 13.4C12.225 13.4667 12.3333 13.5 12.45 13.5C12.65 13.5 12.8083 13.4167 12.925 13.25C13.0417 13.0833 13.0583 12.9083 12.975 12.725L10.775 6.875C10.7417 6.75833 10.675 6.66667 10.575 6.6C10.475 6.53333 10.3583 6.5 10.225 6.5H9.775C9.64167 6.5 9.525 6.53333 9.425 6.6C9.325 6.66667 9.25833 6.75833 9.225 6.875L7.025 12.75C6.95833 12.9333 6.97917 13.1042 7.0875 13.2625C7.19583 13.4208 7.35 13.5 7.55 13.5ZM8.95 10.7L9.975 7.8H10.025L11.05 10.7H8.95Z" fill="url(#paint0_linear_12_120)"/>
<defs>
<linearGradient id="paint0_linear_12_120" x1="21" y1="12" x2="3" y2="12" gradientUnits="userSpaceOnUse">
<stop offset="0.5" stop-color="#AC7CDD"/>
<stop offset="1" stop-color="#D9C7FF"/>
</linearGradient>
</defs>
</svg>
