<svg width="262" height="40" viewBox="0 0 262 40" fill="none" xmlns="http://www.w3.org/2000/svg">
<path d="M17.712 21.312C19.92 21.728 21.712 22.544 23.088 23.76C24.496 24.976 25.2 26.8 25.2 29.232C25.2 32.784 23.92 35.296 21.36 36.768C18.832 38.208 15.28 38.928 10.704 38.928H0V5.664H9.408C14.08 5.664 17.648 6.336 20.112 7.68C22.576 8.992 23.808 11.152 23.808 14.16C23.808 16.112 23.216 17.696 22.032 18.912C20.88 20.096 19.44 20.896 17.712 21.312ZM7.872 11.232V18.96H10.8C14.128 18.96 15.792 17.616 15.792 14.928C15.792 13.584 15.344 12.64 14.448 12.096C13.552 11.52 12.128 11.232 10.176 11.232H7.872ZM10.752 33.216C12.832 33.216 14.4 32.912 15.456 32.304C16.544 31.664 17.088 30.496 17.088 28.8C17.088 25.728 15.168 24.192 11.328 24.192H7.872V33.216H10.752Z" fill="#101010"/>
<path d="M37.065 13.44V38.928H29.481V13.44H37.065ZM33.225 0C34.537 0 35.609 0.416 36.441 1.248C37.305 2.048 37.737 3.072 37.737 4.32C37.737 5.568 37.305 6.608 36.441 7.44C35.609 8.24 34.537 8.64 33.225 8.64C31.913 8.64 30.841 8.24 30.009 7.44C29.177 6.608 28.761 5.568 28.761 4.32C28.761 3.072 29.177 2.048 30.009 1.248C30.841 0.416 31.913 0 33.225 0Z" fill="#101010"/>
<path d="M63.2839 31.536C63.2839 32.496 63.4119 33.2 63.6679 33.648C63.9559 34.096 64.4039 34.432 65.0119 34.656L63.4279 39.6C61.8599 39.472 60.5799 39.136 59.5879 38.592C58.5959 38.016 57.8279 37.12 57.2839 35.904C55.6199 38.464 53.0599 39.744 49.6039 39.744C47.0759 39.744 45.0599 39.008 43.5559 37.536C42.0519 36.064 41.2999 34.144 41.2999 31.776C41.2999 28.992 42.3239 26.864 44.3719 25.392C46.4199 23.92 49.3799 23.184 53.2519 23.184H55.8439V22.08C55.8439 20.576 55.5239 19.552 54.8839 19.008C54.2439 18.432 53.1239 18.144 51.5239 18.144C50.6919 18.144 49.6839 18.272 48.4999 18.528C47.3159 18.752 46.0999 19.072 44.8519 19.488L43.1239 14.496C44.7239 13.888 46.3559 13.424 48.0199 13.104C49.7159 12.784 51.2839 12.624 52.7239 12.624C56.3719 12.624 59.0439 13.376 60.7399 14.88C62.4359 16.384 63.2839 18.64 63.2839 21.648V31.536ZM51.8119 34.32C53.5399 34.32 54.8839 33.504 55.8439 31.872V27.36H53.9719C52.2439 27.36 50.9479 27.664 50.0839 28.272C49.2519 28.88 48.8359 29.824 48.8359 31.104C48.8359 32.128 49.0919 32.928 49.6039 33.504C50.1479 34.048 50.8839 34.32 51.8119 34.32Z" fill="#101010"/>
<path d="M84.2528 12.624C86.4608 12.624 88.1888 13.296 89.4368 14.64C90.6848 15.984 91.3088 17.872 91.3088 20.304V38.928H83.7248V21.6C83.7248 20.32 83.5168 19.44 83.1008 18.96C82.7168 18.448 82.1248 18.192 81.3248 18.192C79.7888 18.192 78.3168 19.296 76.9088 21.504V38.928H69.3248V13.44H75.9488L76.4768 16.464C77.5648 15.184 78.7328 14.224 79.9808 13.584C81.2608 12.944 82.6848 12.624 84.2528 12.624Z" fill="#101010"/>
<path d="M108.068 12.624C109.828 12.624 111.412 12.88 112.82 13.392C114.228 13.904 115.556 14.688 116.804 15.744L113.54 20.256C111.94 19.04 110.324 18.432 108.692 18.432C106.996 18.432 105.716 19.056 104.852 20.304C103.988 21.552 103.556 23.568 103.556 26.352C103.556 29.04 103.988 30.944 104.852 32.064C105.716 33.184 106.964 33.744 108.596 33.744C109.46 33.744 110.244 33.616 110.948 33.36C111.652 33.072 112.5 32.624 113.492 32.016L116.804 36.72C114.276 38.736 111.412 39.744 108.212 39.744C105.62 39.744 103.38 39.2 101.492 38.112C99.6039 36.992 98.1479 35.44 97.1239 33.456C96.0999 31.44 95.5879 29.088 95.5879 26.4C95.5879 23.712 96.0999 21.328 97.1239 19.248C98.1479 17.168 99.6039 15.552 101.492 14.4C103.38 13.216 105.572 12.624 108.068 12.624Z" fill="#101010"/>
<path d="M139.784 31.536C139.784 32.496 139.912 33.2 140.168 33.648C140.456 34.096 140.904 34.432 141.512 34.656L139.928 39.6C138.36 39.472 137.08 39.136 136.088 38.592C135.096 38.016 134.328 37.12 133.784 35.904C132.12 38.464 129.56 39.744 126.104 39.744C123.576 39.744 121.56 39.008 120.056 37.536C118.552 36.064 117.8 34.144 117.8 31.776C117.8 28.992 118.824 26.864 120.872 25.392C122.92 23.92 125.88 23.184 129.752 23.184H132.344V22.08C132.344 20.576 132.024 19.552 131.384 19.008C130.744 18.432 129.624 18.144 128.024 18.144C127.192 18.144 126.184 18.272 125 18.528C123.816 18.752 122.6 19.072 121.352 19.488L119.624 14.496C121.224 13.888 122.856 13.424 124.52 13.104C126.216 12.784 127.784 12.624 129.224 12.624C132.872 12.624 135.544 13.376 137.24 14.88C138.936 16.384 139.784 18.64 139.784 21.648V31.536ZM128.312 34.32C130.04 34.32 131.384 33.504 132.344 31.872V27.36H130.472C128.744 27.36 127.448 27.664 126.584 28.272C125.752 28.88 125.336 29.824 125.336 31.104C125.336 32.128 125.592 32.928 126.104 33.504C126.648 34.048 127.384 34.32 128.312 34.32Z" fill="#101010"/>
<path d="M170.943 4.848C173.023 4.848 174.863 5.152 176.463 5.76C178.095 6.368 179.631 7.28 181.071 8.496L177.327 12.96C176.335 12.192 175.359 11.616 174.399 11.232C173.439 10.848 172.415 10.656 171.327 10.656C169.087 10.656 167.311 11.6 165.999 13.488C164.719 15.376 164.079 18.288 164.079 22.224C164.079 26.096 164.719 28.976 165.999 30.864C167.311 32.72 169.119 33.648 171.423 33.648C172.639 33.648 173.743 33.424 174.735 32.976C175.727 32.496 176.799 31.824 177.951 30.96L181.455 35.472C180.207 36.72 178.687 37.744 176.895 38.544C175.135 39.344 173.183 39.744 171.039 39.744C167.967 39.744 165.295 39.072 163.023 37.728C160.751 36.384 158.975 34.4 157.695 31.776C156.447 29.12 155.823 25.936 155.823 22.224C155.823 18.608 156.463 15.488 157.743 12.864C159.055 10.24 160.847 8.256 163.119 6.912C165.423 5.536 168.031 4.848 170.943 4.848Z" fill="#101010"/>
<path d="M205.579 38.928H199.003L198.667 35.712C196.811 38.4 194.235 39.744 190.939 39.744C188.603 39.744 186.827 39.04 185.611 37.632C184.427 36.224 183.835 34.256 183.835 31.728V13.44H191.419V30.768C191.419 32.016 191.611 32.896 191.995 33.408C192.411 33.888 193.035 34.128 193.867 34.128C195.467 34.128 196.843 33.136 197.995 31.152V13.44H205.579V38.928Z" fill="#101010"/>
<path d="M225.368 12.72C226.296 12.72 227.143 12.832 227.911 13.056L226.712 20.4C225.752 20.176 224.984 20.064 224.408 20.064C222.904 20.064 221.752 20.592 220.952 21.648C220.184 22.672 219.576 24.224 219.128 26.304V38.928H211.544V13.44H218.167L218.792 18.384C219.368 16.624 220.231 15.248 221.383 14.256C222.567 13.232 223.896 12.72 225.368 12.72Z" fill="#101010"/>
<path d="M239.223 12.624C241.047 12.624 242.759 12.896 244.359 13.44C245.959 13.984 247.367 14.752 248.583 15.744L245.799 20.016C243.719 18.704 241.623 18.048 239.511 18.048C238.519 18.048 237.751 18.224 237.207 18.576C236.695 18.896 236.439 19.36 236.439 19.968C236.439 20.448 236.551 20.848 236.775 21.168C237.031 21.456 237.527 21.76 238.263 22.08C238.999 22.4 240.135 22.784 241.671 23.232C244.327 24 246.295 25.008 247.575 26.256C248.887 27.472 249.543 29.168 249.543 31.344C249.543 33.072 249.047 34.576 248.055 35.856C247.063 37.104 245.703 38.064 243.975 38.736C242.247 39.408 240.327 39.744 238.215 39.744C236.071 39.744 234.071 39.408 232.215 38.736C230.391 38.064 228.839 37.136 227.559 35.952L231.255 31.824C233.399 33.488 235.655 34.32 238.023 34.32C239.175 34.32 240.071 34.112 240.711 33.696C241.383 33.28 241.719 32.688 241.719 31.92C241.719 31.312 241.591 30.832 241.335 30.48C241.079 30.128 240.583 29.808 239.847 29.52C239.111 29.2 237.943 28.816 236.343 28.368C233.815 27.632 231.927 26.608 230.679 25.296C229.431 23.984 228.807 22.352 228.807 20.4C228.807 18.928 229.223 17.616 230.055 16.464C230.919 15.28 232.135 14.352 233.703 13.68C235.303 12.976 237.143 12.624 239.223 12.624Z" fill="#101010"/>
<path d="M261.034 13.44V38.928H253.45V13.44H261.034ZM257.194 0C258.506 0 259.578 0.416 260.41 1.248C261.274 2.048 261.706 3.072 261.706 4.32C261.706 5.568 261.274 6.608 260.41 7.44C259.578 8.24 258.506 8.64 257.194 8.64C255.882 8.64 254.81 8.24 253.978 7.44C253.146 6.608 252.73 5.568 252.73 4.32C252.73 3.072 253.146 2.048 253.978 1.248C254.81 0.416 255.882 0 257.194 0Z" fill="#101010"/>
</svg>
